<svg viewBox="0 0 846.66 846.66" xml:space="preserve" xmlns="http://www.w3.org/2000/svg" shape-rendering="geometricPrecision" text-rendering="geometricPrecision" image-rendering="optimizeQuality" fill-rule="evenodd" clip-rule="evenodd"><path d="M137.18 296.7h233.16c11.4 0 20.65 9.24 20.65 20.65v85.33h64.68v-85.33c0-11.41 9.25-20.65 20.65-20.65h233.16c69.69 0 126.63 56.94 126.63 126.63s-56.93 126.63-126.63 126.63H476.32c-11.4 0-20.65-9.24-20.65-20.65v-85.33h-64.68v85.33c0 11.41-9.25 20.65-20.65 20.65H137.18c-69.69 0-126.63-56.94-126.63-126.63S67.48 296.7 137.18 296.7zm171.34 147.28c-27.17 0-27.17-41.3 0-41.3h41.17V338H137.18c-46.88 0-85.33 38.44-85.33 85.33s38.44 85.33 85.33 85.33h212.51v-64.68h-41.17zm188.45-41.3h41.17c27.17 0 27.17 41.3 0 41.3h-41.17v64.68h212.51c46.88 0 85.33-38.44 85.33-85.33S756.37 338 709.48 338H496.97v64.68z" fill="#4ade80" fill-rule="nonzero" class="fill-000000"></path></svg>